<svg width="140" height="30" viewBox="0 0 140 30" fill="none" xmlns="http://www.w3.org/2000/svg">
<path d="M31.07 9.545C32.045 9.545 32.705 10.04 32.705 10.88C32.705 11.735 32.045 12.215 31.07 12.215C30.095 12.215 29.405 11.735 29.405 10.88C29.405 10.04 30.095 9.545 31.07 9.545ZM31.07 13.715C33.095 13.715 34.565 12.56 34.565 10.88C34.565 9.215 33.095 8.045 31.07 8.045C29.03 8.045 27.56 9.215 27.56 10.88C27.56 12.56 29.03 13.715 31.07 13.715ZM35.48 14.075C32.54 14.48 29.165 14.495 26.6 14.495L26.825 16.1C27.785 16.1 28.865 16.1 29.99 16.055V20.885H31.97V15.95C33.17 15.86 34.385 15.74 35.6 15.515L35.48 14.075ZM36.365 7.475V16.76H33.59V18.26H36.365V21.275H38.345V7.475H36.365ZM43.1138 8.945H41.1488V18.08H42.3188C44.3588 18.08 46.4588 17.96 48.6938 17.51L48.4688 15.89C46.6238 16.25 44.8538 16.385 43.1138 16.43V8.945ZM50.0588 7.46V11.735H46.3388V13.34H50.0588V21.335H52.0388V7.46H50.0588ZM63.7077 7.46V21.32H65.6877V7.46H63.7077ZM54.9177 8.57V18.095H61.7277V8.57H59.7627V11.915H56.8827V8.57H54.9177ZM56.8827 13.46H59.7627V16.52H56.8827V13.46ZM74.8582 18.815H82.6432V15.17H72.8782V16.655H80.6782V17.405H72.9082V21.125H83.0932V19.64H74.8582V18.815ZM82.3132 12.785C82.5532 11.39 82.5532 10.25 82.5532 9.185V7.955H73.0582V9.485H80.6032C80.6032 9.74 80.6032 10.01 80.5882 10.28L72.6682 10.46L72.8782 11.975L80.4982 11.645C80.4532 12.02 80.3932 12.38 80.3332 12.785H71.5432V14.345H83.9782V12.785H82.3132ZM87.607 14.165H90.892V8.81H85.672V10.4H88.987V12.605H85.687V18.23H86.662C88.327 18.23 89.827 18.185 91.597 17.9L91.447 16.295C90.067 16.505 88.867 16.58 87.607 16.61V14.165ZM95.287 7.46V12.68H94.042V7.715H92.197V20.63H94.042V14.27H95.287V21.275H97.162V7.46H95.287ZM111.186 13.97C108.066 13.445 106.356 11.3 106.356 9.275V8.285H104.241V9.275C104.241 11.255 102.516 13.445 99.4108 13.97L100.251 15.635C102.651 15.17 104.406 13.82 105.291 12.065C106.176 13.82 107.946 15.155 110.346 15.635L111.186 13.97ZM99.1108 18.005V19.61H111.621V18.005H99.1108Z" fill="white"/>
</svg>
