<?xml version="1.0" standalone="no"?>
<!DOCTYPE svg PUBLIC "-//W3C//DTD SVG 20010904//EN"
 "http://www.w3.org/TR/2001/REC-SVG-20010904/DTD/svg10.dtd">
<svg version="1.0" xmlns="http://www.w3.org/2000/svg"
 width="512.000000pt" height="512.000000pt" viewBox="0 0 512.000000 512.000000"
 preserveAspectRatio="xMidYMid meet">

<g transform="translate(0.000000,512.000000) scale(0.100000,-0.100000)"
fill="#000000" stroke="none">
<path d="M1347 4410 c-114 -20 -214 -98 -265 -208 l-27 -57 0 -1350 0 -1350
33 -67 c65 -132 173 -197 338 -206 l92 -4 4 -97 c3 -78 9 -107 31 -156 35 -76
95 -138 172 -178 l60 -32 650 -3 650 -2 493 493 492 492 -2 995 -3 995 -27 57
c-35 76 -98 142 -167 175 -47 23 -72 28 -162 31 l-106 4 -5 102 c-4 82 -10
112 -30 156 -52 112 -149 187 -272 209 -71 13 -1873 13 -1949 1z m1988 -149
c88 -40 125 -110 125 -230 l0 -81 -832 -2 -833 -3 -55 -26 c-82 -39 -144 -99
-182 -177 l-33 -67 -3 -1177 -2 -1178 -83 0 c-92 0 -144 19 -189 66 -62 66
-58 -22 -58 1414 0 1077 2 1316 13 1343 21 49 67 98 112 118 38 18 90 19 1010
19 923 0 972 -1 1010 -19z m490 -486 c33 -21 57 -47 79 -85 l31 -55 3 -922 3
-922 -338 -3 -338 -3 -67 -33 c-83 -41 -158 -119 -189 -200 -22 -54 -23 -72
-27 -384 l-4 -328 -573 0 -573 0 -53 28 c-34 17 -65 44 -84 71 l-30 43 -3
1330 -2 1330 26 48 c14 26 39 57 56 70 68 50 35 49 1069 47 l966 -2 48 -30z
m-340 -2475 c-192 -192 -354 -350 -358 -350 -5 0 -7 120 -5 268 3 251 4 269
25 307 11 22 34 52 50 67 57 54 75 57 368 58 l270 0 -350 -350z"/>
<path d="M2086 3269 c-33 -26 -36 -77 -5 -105 20 -18 47 -19 721 -19 l700 0
19 24 c26 32 24 67 -6 96 l-24 25 -689 0 c-682 0 -690 0 -716 -21z"/>
<path d="M2080 2670 c-11 -11 -20 -33 -20 -50 0 -17 9 -39 20 -50 20 -20 33
-20 718 -20 l699 0 21 23 c28 29 28 57 1 91 l-20 26 -700 0 c-686 0 -699 0
-719 -20z"/>
<path d="M2110 2093 c-56 -21 -68 -87 -24 -122 26 -21 34 -21 716 -21 l689 0
24 25 c39 38 32 86 -16 110 -24 13 -129 15 -701 14 -370 0 -680 -3 -688 -6z"/>
<path d="M2077 1482 c-23 -25 -21 -78 3 -102 19 -19 33 -20 300 -20 267 0 281
1 300 20 11 11 20 33 20 50 0 17 -9 39 -20 50 -19 19 -33 20 -303 20 -262 0
-285 -1 -300 -18z"/>
</g>
</svg>
