<svg width="350" height="525" viewBox="0 0 350 525" fill="none" xmlns="http://www.w3.org/2000/svg">
<g opacity="0.7" filter="url(#filter0_i_1_7)">
<path d="M0 87.5C0 39.1751 39.1751 0 87.5 0H175V175H87.5C39.1751 175 0 135.825 0 87.5Z" fill="#FF624D"/>
<path d="M350 87.5C350 39.1751 310.825 0 262.5 0H175V175H262.5C310.825 175 350 135.825 350 87.5Z" fill="#FF9393"/>
<path d="M0 262.5C0 214.175 39.1751 175 87.5 175H175V350H87.5C39.1751 350 0 310.825 0 262.5Z" fill="#A54CFF"/>
<path d="M0 437.5C0 389.175 39.1751 350 87.5 350H175V437.5C175 485.825 135.825 525 87.5 525C39.1751 525 0 485.825 0 437.5Z" fill="#21C781"/>
<circle cx="262.5" cy="262.5" r="87.5" fill="#59AFFF"/>
</g>
<defs>
<filter id="filter0_i_1_7" x="0" y="0" width="350" height="529" filterUnits="userSpaceOnUse" color-interpolation-filters="sRGB">
<feFlood flood-opacity="0" result="BackgroundImageFix"/>
<feBlend mode="normal" in="SourceGraphic" in2="BackgroundImageFix" result="shape"/>
<feColorMatrix in="SourceAlpha" type="matrix" values="0 0 0 0 0 0 0 0 0 0 0 0 0 0 0 0 0 0 127 0" result="hardAlpha"/>
<feOffset dy="4"/>
<feGaussianBlur stdDeviation="2"/>
<feComposite in2="hardAlpha" operator="arithmetic" k2="-1" k3="1"/>
<feColorMatrix type="matrix" values="0 0 0 0 0 0 0 0 0 0 0 0 0 0 0 0 0 0 0.25 0"/>
<feBlend mode="normal" in2="shape" result="effect1_innerShadow_1_7"/>
</filter>
</defs>
</svg>
