<svg width="130" height="24" viewBox="0 0 130 24" fill="none" xmlns="http://www.w3.org/2000/svg">
<g clip-path="url(#clip0_3_49)">
<path opacity="0.983" fill-rule="evenodd" clip-rule="evenodd" d="M11.1166 -0.12915C11.5526 -0.12915 11.9885 -0.12915 12.4245 -0.12915C12.9184 0.0829742 13.4416 0.298029 13.9939 0.516011C15.1802 1.72977 16.4009 2.89106 17.6559 3.99988C17.6559 4.17193 17.6559 4.34396 17.6559 4.51601C15.8341 6.18414 14.0467 7.90458 12.2937 9.6773C11.3472 11.4987 11.5216 13.2191 12.8168 14.8386C14.3955 16.4393 16.0085 17.9877 17.6559 19.4838C17.6559 19.5698 17.6559 19.6558 17.6559 19.7418C16.3315 21.3072 14.8493 22.6835 13.2092 23.8708C12.3373 23.8708 11.4654 23.8708 10.5935 23.8708C6.68548 20.7897 3.11072 17.3488 -0.130859 13.5483C-0.130859 12.516 -0.130859 11.4838 -0.130859 10.4515C2.85221 7.12042 5.99104 3.89462 9.28564 0.774075C9.92 0.461144 10.5303 0.160069 11.1166 -0.12915Z" fill="#29599D"/>
<path opacity="0.988" fill-rule="evenodd" clip-rule="evenodd" d="M24.7184 23.871C23.9337 23.871 23.149 23.871 22.3643 23.871C20.7237 22.5979 19.1543 21.2216 17.656 19.742C17.656 19.656 17.656 19.57 17.656 19.484C19.3906 17.9019 21.0908 16.2674 22.7566 14.5807C23.8451 13.0005 23.9323 11.3661 23.0182 9.6775C21.2652 7.90478 19.4778 6.18434 17.656 4.51621C17.656 4.34416 17.656 4.17213 17.656 4.00008C18.9196 2.79675 20.2274 1.63546 21.5795 0.51621C23.101 -0.051128 24.5833 0.0348937 26.0262 0.774275C29.3128 3.84406 32.408 7.06986 35.3119 10.4517C35.8741 12.191 35.5254 13.7394 34.2657 15.0969C31.6063 17.7205 28.9472 20.3442 26.2878 22.9678C25.7825 23.3442 25.2593 23.6453 24.7184 23.871Z" fill="#52C4EB"/>
<path opacity="0.895" fill-rule="evenodd" clip-rule="evenodd" d="M41.4588 2.96777C42.3307 2.96777 43.2027 2.96777 44.0745 2.96777C44.0311 4.43265 44.0748 5.89503 44.2053 7.35487C44.5503 6.84197 45.0298 6.54091 45.644 6.45164C47.4917 6.00127 49.1048 6.38837 50.483 7.61294C50.7085 8.02248 50.8829 8.45257 51.0061 8.90326C51.4092 11.6428 51.4966 14.3955 51.2677 17.1613C50.3799 17.408 49.4644 17.494 48.5212 17.4194C48.5646 15.0952 48.5212 12.7726 48.3904 10.4516C47.7425 8.91608 46.6528 8.52899 45.1208 9.29035C44.6011 9.63072 44.2958 10.1039 44.2053 10.7097C44.0745 12.9446 44.0311 15.1812 44.0745 17.4194C43.1313 17.494 42.2158 17.408 41.3281 17.1613C41.1138 12.4112 41.1575 7.67998 41.4588 2.96777Z" fill="#FEFFFE"/>
<path opacity="0.926" fill-rule="evenodd" clip-rule="evenodd" d="M95.8653 2.96777C96.7371 2.96777 97.6091 2.96777 98.481 2.96777C98.4375 4.43265 98.4812 5.89503 98.6117 7.35487C99.4422 6.53724 100.445 6.19317 101.62 6.32261C103.954 6.25874 105.306 7.37704 105.674 9.67745C105.805 12.2567 105.848 14.8373 105.805 17.4194C104.862 17.494 103.946 17.408 103.058 17.1613C102.971 14.8387 102.884 12.5162 102.797 10.1936C102.009 8.89417 100.919 8.59309 99.5272 9.29035C99.2131 9.52326 98.9949 9.82434 98.8733 10.1936C98.5108 12.5849 98.38 14.9935 98.481 17.4194C97.6238 17.4927 96.7957 17.4066 95.996 17.1613C95.8653 12.4309 95.8216 7.69975 95.8653 2.96777Z" fill="#FEFFFE"/>
<path opacity="0.787" fill-rule="evenodd" clip-rule="evenodd" d="M108.944 2.96777C109.976 3.12641 110.587 3.72855 110.775 4.77422C109.831 6.83213 108.872 6.83213 107.897 4.77422C108.261 4.16323 108.609 3.56109 108.944 2.96777Z" fill="#FEFFFE"/>
<path fill-rule="evenodd" clip-rule="evenodd" d="M17.6559 4.51611C19.4777 6.18424 21.2651 7.90468 23.0181 9.6774C23.9322 11.366 23.845 13.0004 22.7565 14.5806C21.0907 16.2673 19.3905 17.9018 17.6559 19.4839C16.0086 17.9878 14.3955 16.4394 12.8169 14.8387C11.5216 13.2192 11.3473 11.4988 12.2938 9.6774C14.0468 7.90468 15.8341 6.18424 17.6559 4.51611Z" fill="#5166A9"/>
<path opacity="0.905" fill-rule="evenodd" clip-rule="evenodd" d="M68.1387 6.32257C73.593 6.1499 75.8163 8.73055 74.8088 14.0645C73.3751 17.2015 70.9773 18.2768 67.6156 17.2903C67.1484 17.0879 66.7561 16.7868 66.4385 16.3871C66.3888 17.9137 66.2581 19.419 66.0462 20.9032C65.1935 21.1054 64.3651 21.0624 63.5613 20.7742C63.3868 16.129 63.3868 11.4839 63.5613 6.8387C64.3609 6.59341 65.189 6.50737 66.0462 6.58064C66.0051 6.93507 66.0488 7.27917 66.177 7.6129C66.8254 7.14474 67.4793 6.71463 68.1387 6.32257ZM68.4003 8.90322C70.772 8.65114 72.0798 9.6834 72.3238 12C71.6045 14.8069 69.948 15.5811 67.354 14.3226C66.3797 13.3009 66.0744 12.0966 66.4385 10.7097C66.9007 9.86528 67.5547 9.26314 68.4003 8.90322Z" fill="#FEFFFE"/>
<path opacity="0.892" fill-rule="evenodd" clip-rule="evenodd" d="M80.171 6.32253C84.9574 5.92777 87.355 8.0783 87.3641 12.7741C84.6391 13.0288 81.8926 13.1148 79.1247 13.0322C79.7545 14.8916 81.0624 15.5368 83.0482 14.9677C84.0903 13.8837 85.3982 13.4966 86.9718 13.8064C86.4246 15.9331 85.0296 17.1804 82.7866 17.5483C78.7747 17.7207 76.5077 15.8282 75.9858 11.8709C76.16 9.08116 77.5553 7.23172 80.171 6.32253ZM80.9557 8.64511C82.6496 8.44083 83.8703 9.08599 84.6176 10.5806C82.7804 10.7951 80.9494 10.7521 79.1247 10.4516C79.4864 9.57838 80.0969 8.97623 80.9557 8.64511Z" fill="#FEFFFE"/>
<path opacity="0.949" fill-rule="evenodd" clip-rule="evenodd" d="M92.988 6.32251C93.5112 6.32251 94.0343 6.32251 94.5574 6.32251C94.6006 7.187 94.5569 8.04721 94.4267 8.90315C93.4251 8.96135 92.6404 9.39146 92.0725 10.1935C91.71 12.5848 91.5792 14.9933 91.6802 17.4193C90.823 17.4925 89.9949 17.4065 89.1953 17.1612C89.0645 13.6354 89.0208 10.1085 89.0645 6.58057C89.8539 6.5381 90.6386 6.58109 91.4186 6.70961C91.5823 6.90326 91.7131 7.11833 91.811 7.35477C92.1764 6.94953 92.5687 6.60545 92.988 6.32251Z" fill="#FEFFFE"/>
<path opacity="0.899" fill-rule="evenodd" clip-rule="evenodd" d="M117.052 6.32251C117.488 6.32251 117.924 6.32251 118.36 6.32251C118.36 7.26875 118.36 8.21497 118.36 9.16122C117.212 9.01755 116.384 9.44765 115.875 10.4515C115.744 12.7725 115.701 15.0951 115.744 17.4193C114.801 17.4939 113.886 17.4079 112.998 17.1612C112.867 13.6354 112.824 10.1085 112.867 6.58057C113.739 6.58057 114.611 6.58057 115.483 6.58057C115.444 6.85206 115.487 7.11012 115.614 7.35477C116.006 6.84672 116.486 6.50264 117.052 6.32251Z" fill="#FEFFFE"/>
<path opacity="0.892" fill-rule="evenodd" clip-rule="evenodd" d="M129.869 10.9678C129.869 11.57 129.869 12.1721 129.869 12.7743C127.012 12.9836 124.135 13.1126 121.238 13.1614C122.123 14.8881 123.518 15.4903 125.423 14.9678C126.465 13.8839 127.773 13.4968 129.346 13.8065C128.315 16.6846 126.222 17.9319 123.069 17.5485C119.818 16.6632 118.292 14.5557 118.491 11.2259C119.444 7.36709 121.929 5.77571 125.946 6.45168C128.078 7.30492 129.386 8.81029 129.869 10.9678ZM123.33 8.64523C125.024 8.44095 126.245 9.08611 126.992 10.5807C125.155 10.7952 123.324 10.7522 121.499 10.4517C121.861 9.5785 122.471 8.97636 123.33 8.64523Z" fill="#FEFFFE"/>
<path opacity="0.908" fill-rule="evenodd" clip-rule="evenodd" d="M51.9216 6.58075C52.7979 6.53817 53.6697 6.58119 54.5373 6.70979C54.6681 6.83882 54.7989 6.96785 54.9297 7.09688C55.5996 9.02021 56.3408 10.9127 57.153 12.7743C57.9866 10.8249 58.7713 8.84638 59.5071 6.83882C60.4506 6.58354 61.4098 6.4975 62.3844 6.58075C60.7873 11.436 58.9563 16.2102 56.8914 20.9033C55.8813 21.139 54.9224 21.053 54.0142 20.6453C54.6817 19.4139 55.2049 18.1235 55.5836 16.7743C54.2823 13.3957 53.0618 9.99781 51.9216 6.58075Z" fill="#FEFFFE"/>
<path opacity="0.889" fill-rule="evenodd" clip-rule="evenodd" d="M108.159 6.58057C109.031 6.58057 109.903 6.58057 110.775 6.58057C110.818 10.1085 110.775 13.6354 110.644 17.1612C109.772 17.5053 108.9 17.5053 108.028 17.1612C107.815 13.615 107.859 10.0881 108.159 6.58057Z" fill="#FEFFFE"/>
</g>
<defs>
<clipPath id="clip0_3_49">
<rect width="130" height="24" fill="white"/>
</clipPath>
</defs>
</svg>
