<?xml version="1.0" standalone="no"?>
<!DOCTYPE svg PUBLIC "-//W3C//DTD SVG 20010904//EN"
 "http://www.w3.org/TR/2001/REC-SVG-20010904/DTD/svg10.dtd">
<svg version="1.0" xmlns="http://www.w3.org/2000/svg"
 width="241.000000pt" height="209.000000pt" viewBox="0 0 241.000000 209.000000"
 preserveAspectRatio="xMidYMid meet">

<g transform="translate(0.000000,209.000000) scale(0.100000,-0.100000)"
fill="#000000" stroke="none">
<path d="M1026 2004 c-304 -68 -525 -306 -570 -612 l-12 -83 -64 -22 c-145
-49 -262 -148 -332 -281 l-43 -81 0 -190 c0 -187 0 -191 28 -250 61 -130 166
-227 303 -282 l69 -28 747 -3 c831 -3 819 -4 948 64 76 40 171 130 213 201 37
64 64 155 73 242 l7 71 -95 0 -95 0 -5 -63 c-11 -137 -109 -270 -234 -316 -55
-21 -65 -21 -802 -19 l-747 3 -55 26 c-69 32 -142 106 -177 178 -25 51 -28 66
-28 171 0 110 1 118 33 182 65 132 179 205 338 215 l81 6 6 131 c9 199 52 311
162 421 107 107 230 156 395 156 109 0 173 -16 273 -69 153 -80 277 -267 277
-419 l0 -33 100 0 c115 0 110 -7 85 109 -32 153 -103 278 -220 389 -84 80
-174 134 -283 169 -100 33 -273 40 -376 17z"/>
</g>
</svg>
