<svg width="61" height="20" viewBox="0 0 61 20" fill="none" xmlns="http://www.w3.org/2000/svg">
<path opacity="0.923" fill-rule="evenodd" clip-rule="evenodd" d="M16.7353 1.1001C18.0573 1.06685 19.3776 1.10018 20.6963 1.2001C20.7411 2.43342 20.7741 3.73342 20.7953 5.1001C21.9987 5.29538 23.2199 5.36204 24.4593 5.3001C24.4593 6.63344 24.4593 7.96676 24.4593 9.3001C23.205 9.3001 21.9506 9.3001 20.6963 9.3001C20.623 10.5851 20.7221 11.8518 20.9934 13.1001C21.2245 13.3334 21.4554 13.5668 21.6866 13.8001C22.5948 13.8395 23.4861 13.9395 24.3603 14.1001C24.4593 15.4318 24.4922 16.7651 24.4593 18.1001C21.0724 18.7395 18.5967 17.5395 17.0323 14.5001C16.7416 10.0467 16.6426 5.58 16.7353 1.1001Z" fill="#FEFFFE"/>
<path opacity="0.914" fill-rule="evenodd" clip-rule="evenodd" d="M7.62512 4.90005C12.4848 4.58289 15.1915 6.84955 15.7453 11.7C15.4645 15.9964 13.1869 18.3298 8.91246 18.7C5.74802 18.4689 3.56945 16.8689 2.37674 13.9C1.54572 9.31661 3.29517 6.31661 7.62512 4.90005ZM8.02122 9.10005C11.1462 9.07917 12.1695 10.5458 11.091 13.5C9.2052 15.0186 7.62078 14.7519 6.33778 12.7C6.00109 11.0475 6.56224 9.84749 8.02122 9.10005Z" fill="#FEFFFE"/>
<path opacity="0.91" fill-rule="evenodd" clip-rule="evenodd" d="M30.203 4.89993C31.9357 4.66227 33.487 5.06227 34.8572 6.09993C38.1878 4.07319 41.0265 4.60653 43.3734 7.69993C43.6505 8.27261 43.8485 8.87261 43.9676 9.49993C44.0666 12.3658 44.0997 15.2325 44.0666 18.0999C42.6802 18.0999 41.2939 18.0999 39.9075 18.0999C39.9406 15.3658 39.9075 12.6324 39.8085 9.89993C39.2931 9.15757 38.6 8.92423 37.7289 9.19993C37.3354 9.46371 37.1043 9.83039 37.0357 10.2999C36.9367 12.8991 36.9036 15.4991 36.9367 18.0999C35.5658 18.1624 34.2123 18.0957 32.8767 17.8999C32.8107 15.1666 32.7446 12.4333 32.6786 9.69993C31.7521 8.86213 30.894 8.92879 30.1039 9.89993C30.0049 12.6324 29.9718 15.3658 30.0049 18.0999C28.6185 18.0999 27.2322 18.0999 25.8458 18.0999C25.7591 14.8885 25.8581 11.6885 26.1429 8.49993C26.9858 6.68023 28.3391 5.48023 30.203 4.89993Z" fill="#FEFFFE"/>
<path opacity="0.916" fill-rule="evenodd" clip-rule="evenodd" d="M50.6023 4.90001C55.4847 4.56647 58.1912 6.83313 58.7224 11.7C58.6351 15.0209 57.0507 17.2543 53.9692 18.4C49.7966 19.2106 46.9249 17.6439 45.3539 13.7C44.6114 9.22257 46.3608 6.28923 50.6023 4.90001ZM50.9984 9.10001C54.1563 9.05503 55.1797 10.5217 54.0682 13.5C52.0695 15.0696 50.485 14.7363 49.315 12.5C49.1761 11.8143 49.2421 11.1477 49.513 10.5C49.9824 9.99229 50.4775 9.52563 50.9984 9.10001Z" fill="#FEFFFE"/>
</svg>
