<svg width="140" height="30" viewBox="0 0 140 30" fill="none" xmlns="http://www.w3.org/2000/svg">
<path d="M11 5L16.634 14H28L22.366 5H11Z" fill="#05F4C8"/>
<path d="M31.5 5L26.25 13.4971H26.2047V13.5396L21 22.0791L21.0453 22.1641C23.3534 25.9453 29.1466 25.9453 31.4547 22.1641L42 5H31.5Z" fill="#1C35EA"/>
<path d="M51.812 19.7451H55.0926L56.2057 15.3216C56.4401 14.3568 56.6158 13.4284 56.8111 12.3362H56.9087C57.1235 13.4284 57.2993 14.3568 57.5336 15.3034L58.6857 19.7451H62.064L64.7784 9.56917H62.1031L60.9314 14.5934C60.7166 15.5947 60.5799 16.5595 60.3847 17.5607H60.287C60.0527 16.5595 59.8379 15.5947 59.584 14.5934L58.2171 9.56917H55.6785L54.3506 14.5934C54.0772 15.5765 53.8819 16.5595 53.6867 17.5607H53.589C53.3937 16.5595 53.257 15.5947 53.0618 14.5934L51.851 9.56917H49L51.812 19.7451Z" fill="white"/>
<path d="M69.2245 20C70.4742 20 71.5678 19.4357 72.5246 18.6711H72.6028L72.8176 19.7451H75.1609V13.8107C75.1609 10.8434 73.7354 9.31432 70.9624 9.31432C69.2245 9.31432 67.6818 9.91505 66.3929 10.6432L67.4279 12.4272C68.4238 11.8629 69.4197 11.4624 70.4352 11.4624C71.7826 11.4624 72.2317 12.2087 72.2903 13.21C67.8966 13.665 66.0024 14.8119 66.0024 16.9782C66.0024 18.7257 67.2717 20 69.2245 20ZM70.1618 17.9066C69.3221 17.9066 68.7363 17.5607 68.7363 16.7779C68.7363 15.8495 69.615 15.176 72.2903 14.8665V16.9235C71.5873 17.5607 70.9819 17.9066 70.1618 17.9066Z" fill="white"/>
<path d="M78.0865 19.7451H80.9571V12.7367C81.7577 12.0085 82.324 11.608 83.2223 11.608C84.2768 11.608 84.765 12.1359 84.765 13.7379V19.7451H87.6356V13.392C87.6356 10.8434 86.6006 9.31432 84.2573 9.31432C82.7732 9.31432 81.6406 10.0425 80.7032 10.9163H80.6447L80.4103 9.56917H78.0865V19.7451Z" fill="white"/>
<path d="M90.5965 19.7451H93.467V12.7367C94.2677 12.0085 94.834 11.608 95.7323 11.608C96.7868 11.608 97.2749 12.1359 97.2749 13.7379V19.7451H100.146V13.392C100.146 10.8434 99.1106 9.31432 96.7672 9.31432C95.2831 9.31432 94.1505 10.0425 93.2132 10.9163H93.1546L92.9203 9.56917H90.5965V19.7451Z" fill="white"/>
<path d="M105.782 20C107.031 20 108.125 19.4357 109.082 18.6711H109.16L109.375 19.7451H111.718V13.8107C111.718 10.8434 110.293 9.31432 107.52 9.31432C105.782 9.31432 104.239 9.91505 102.95 10.6432L103.985 12.4272C104.981 11.8629 105.977 11.4624 106.992 11.4624C108.34 11.4624 108.789 12.2087 108.848 13.21C104.454 13.665 102.56 14.8119 102.56 16.9782C102.56 18.7257 103.829 20 105.782 20ZM106.719 17.9066C105.879 17.9066 105.294 17.5607 105.294 16.7779C105.294 15.8495 106.172 15.176 108.848 14.8665V16.9235C108.145 17.5607 107.539 17.9066 106.719 17.9066Z" fill="white"/>
<path d="M117.104 19.7451H120.424L124.076 9.56917H121.303L119.701 14.6481C119.409 15.6493 119.116 16.6869 118.823 17.7245H118.725C118.432 16.6869 118.139 15.6493 117.846 14.6481L116.265 9.56917H113.355L117.104 19.7451Z" fill="white"/>
<path d="M125.895 19.7451H128.766V9.56917H125.895V19.7451ZM127.321 7.91262C128.317 7.91262 129 7.3301 129 6.43811C129 5.56432 128.317 5 127.321 5C126.325 5 125.661 5.56432 125.661 6.43811C125.661 7.3301 126.325 7.91262 127.321 7.91262Z" fill="white"/>
</svg>
